<svg width="525" height="101" viewBox="0 0 525 101" fill="none" xmlns="http://www.w3.org/2000/svg">
<path d="M419.866 54.1V66H384.446V16.3H419.236V28.2H398.096V35.2H416.156V46.26H398.096V54.1H419.866ZM439.863 41.57V66H426.213V16.3H436.853L456.803 41.57V16.3H470.453V66H459.603L439.863 41.57ZM478.987 66V16.3H498.097C503.603 16.3 508.2 17.42 511.887 19.66C515.62 21.8533 518.42 24.84 520.287 28.62C522.2 32.3533 523.157 36.5067 523.157 41.08C523.157 46.12 522.107 50.5067 520.007 54.24C517.953 57.9733 515.037 60.8667 511.257 62.92C507.523 64.9733 503.137 66 498.097 66H478.987ZM509.297 41.08C509.297 38.5133 508.853 36.2733 507.967 34.36C507.08 32.4 505.797 30.8833 504.117 29.81C502.437 28.7367 500.43 28.2 498.097 28.2H492.637V54.1H498.097C500.477 54.1 502.483 53.54 504.117 52.42C505.797 51.3 507.08 49.76 507.967 47.8C508.853 45.7933 509.297 43.5533 509.297 41.08Z" fill="black"/>
<path d="M378.475 44.4749C379.842 43.108 379.842 40.892 378.475 39.5251L356.201 17.2513C354.834 15.8844 352.618 15.8844 351.251 17.2513C349.884 18.6181 349.884 20.8342 351.251 22.201L371.05 42L351.251 61.799C349.884 63.1658 349.884 65.3819 351.251 66.7487C352.618 68.1156 354.834 68.1156 356.201 66.7487L378.475 44.4749ZM241 45.5H376V38.5H241V45.5Z" fill="#BC825A"/>
<path d="M4.74754 66V16.3H38.8375V28.2H18.3975V36.46H35.0575V47.52H18.3975V66H4.74754ZM44.1909 66V16.3H67.0109C69.4376 16.3 71.6776 16.79 73.7309 17.77C75.7842 18.75 77.5576 20.08 79.0509 21.76C80.5442 23.3933 81.6876 25.2367 82.4809 27.29C83.3209 29.3433 83.7409 31.42 83.7409 33.52C83.7409 35.4333 83.4609 37.2767 82.9009 39.05C82.3409 40.8233 81.5242 42.4567 80.4509 43.95C79.3776 45.3967 78.0942 46.6567 76.6009 47.73L87.1009 66H72.1209L63.3709 50.74H57.8409V66H44.1909ZM57.8409 38.84H66.4509C67.0109 38.84 67.5476 38.63 68.0609 38.21C68.5742 37.79 68.9942 37.1833 69.3209 36.39C69.6942 35.5967 69.8809 34.64 69.8809 33.52C69.8809 32.3533 69.6709 31.3967 69.2509 30.65C68.8776 29.8567 68.3876 29.25 67.7809 28.83C67.2209 28.41 66.6609 28.2 66.1009 28.2H57.8409V38.84ZM113.212 66.42C109.432 66.42 106.002 65.72 102.922 64.32C99.842 62.8733 97.182 60.96 94.942 58.58C92.7487 56.1533 91.0453 53.4467 89.832 50.46C88.6653 47.4267 88.082 44.3 88.082 41.08C88.082 37.7667 88.712 34.6167 89.972 31.63C91.232 28.6433 92.982 25.9833 95.222 23.65C97.5087 21.27 100.192 19.4033 103.272 18.05C106.399 16.6967 109.805 16.02 113.492 16.02C117.272 16.02 120.702 16.7433 123.782 18.19C126.862 19.59 129.499 21.5033 131.692 23.93C133.885 26.3567 135.565 29.0867 136.732 32.12C137.945 35.1067 138.552 38.1867 138.552 41.36C138.552 44.6267 137.922 47.7533 136.662 50.74C135.449 53.7267 133.699 56.41 131.412 58.79C129.172 61.1233 126.512 62.99 123.432 64.39C120.352 65.7433 116.945 66.42 113.212 66.42ZM101.942 41.22C101.942 42.9 102.175 44.5333 102.642 46.12C103.109 47.66 103.809 49.06 104.742 50.32C105.675 51.5333 106.842 52.5133 108.242 53.26C109.689 53.96 111.392 54.31 113.352 54.31C115.312 54.31 117.015 53.9367 118.462 53.19C119.909 52.4433 121.075 51.44 121.962 50.18C122.895 48.8733 123.572 47.45 123.992 45.91C124.459 44.3233 124.692 42.7133 124.692 41.08C124.692 39.4 124.459 37.79 123.992 36.25C123.525 34.71 122.825 33.3333 121.892 32.12C120.959 30.86 119.769 29.88 118.322 29.18C116.875 28.48 115.195 28.13 113.282 28.13C111.322 28.13 109.619 28.5033 108.172 29.25C106.772 29.9967 105.605 31 104.672 32.26C103.739 33.4733 103.039 34.8733 102.572 36.46C102.152 38 101.942 39.5867 101.942 41.22ZM157.987 41.57V66H144.337V16.3H154.977L174.927 41.57V16.3H188.577V66H177.727L157.987 41.57ZM235.821 28.2H221.541V66H207.891V28.2H193.541V16.3H235.821V28.2Z" fill="black"/>
</svg>
